<svg width="200" height="200" viewBox="0 0 200 200" xmlns="http://www.w3.org/2000/svg"><title></title><path d="M133.333 107.333a8.333 8.333 0 0 1-10.166-4.166c-1.834-4 0-6.834 3.666-9.167a25.246 25.246 0 0 1 4.334-2.333C137.833 87.833 143.333 82.833 140 75a15.167 15.167 0 0 0-17.833-8.833 14.167 14.167 0 0 0-13.834 14.5v41.5C106.068 138.8 91.786 151.154 75 151c-18.157-1.335-31.884-16.991-30.833-35.167 0-9.666 9-16.666 20.833-22.666 5-1.5 10-1.5 12.667 3.5 2.666 5-2.334 8.666-6.667 10.666-8.833 3.834-13.167 10-9 19a15.5 15.5 0 0 0 20.833 7.334 14.667 14.667 0 0 0 9.834-15.834V80.167c-.754-13.533 7.966-25.782 21-29.5a34.667 34.667 0 0 1 36.666 9.5 30.5 30.5 0 0 1-16.666 47.166h-.334ZM100 0C44.775 0 0 44.775 0 100s44.775 100 100 100 100-44.775 100-100S155.225 0 100 0Z" fill="#07C160" fill-rule="nonzero"/></svg>
